<svg width="1200" height="630" viewBox="0 0 1200 630" fill="none" xmlns="http://www.w3.org/2000/svg">
  <!-- Background gradient -->
  <defs>
    <linearGradient id="bg" x1="0%" y1="0%" x2="100%" y2="100%">
      <stop offset="0%" style="stop-color:#0a0a0f"/>
      <stop offset="100%" style="stop-color:#1a1a2e"/>
    </linearGradient>
    <linearGradient id="accent" x1="0%" y1="0%" x2="100%" y2="0%">
      <stop offset="0%" style="stop-color:#7c5cff"/>
      <stop offset="100%" style="stop-color:#00d4aa"/>
    </linearGradient>
  </defs>
  
  <!-- Background -->
  <rect width="1200" height="630" fill="url(#bg)"/>
  
  <!-- Decorative elements -->
  <circle cx="100" cy="100" r="200" fill="#7c5cff" opacity="0.1"/>
  <circle cx="1100" cy="530" r="250" fill="#00d4aa" opacity="0.1"/>
  
  <!-- Grid pattern -->
  <g opacity="0.05">
    <line x1="0" y1="157" x2="1200" y2="157" stroke="white" stroke-width="1"/>
    <line x1="0" y1="315" x2="1200" y2="315" stroke="white" stroke-width="1"/>
    <line x1="0" y1="473" x2="1200" y2="473" stroke="white" stroke-width="1"/>
    <line x1="300" y1="0" x2="300" y2="630" stroke="white" stroke-width="1"/>
    <line x1="600" y1="0" x2="600" y2="630" stroke="white" stroke-width="1"/>
    <line x1="900" y1="0" x2="900" y2="630" stroke="white" stroke-width="1"/>
  </g>
  
  <!-- NFT Icon -->
  <rect x="500" y="150" width="200" height="200" rx="20" fill="url(#accent)" opacity="0.2"/>
  <rect x="520" y="170" width="160" height="160" rx="12" fill="white" opacity="0.1"/>
  <text x="600" y="270" font-family="Arial" font-size="80" fill="white" text-anchor="middle">🖼️</text>
  
  <!-- Title -->
  <text x="600" y="420" font-family="Arial, sans-serif" font-size="48" font-weight="bold" fill="white" text-anchor="middle">
    NFT Marketplace
  </text>
  
  <!-- Subtitle -->
  <text x="600" y="470" font-family="Arial, sans-serif" font-size="24" fill="#888" text-anchor="middle">
    by 0xAddress.com
  </text>
  
  <!-- Tagline -->
  <text x="600" y="530" font-family="Arial, sans-serif" font-size="20" fill="#7c5cff" text-anchor="middle">
    Discover • Collect • Trade
  </text>
  
  <!-- Bottom accent line -->
  <rect x="400" y="580" width="400" height="4" rx="2" fill="url(#accent)"/>
</svg>
